<svg xmlns="http://www.w3.org/2000/svg" xmlns:xlink="http://www.w3.org/1999/xlink" contentStyleType="text/css" data-diagram-type="CLASS" height="809px" preserveAspectRatio="none" style="width:722px;height:809px;background:#FFFFFF;" version="1.1" viewBox="0 0 722 809" width="722px" zoomAndPan="magnify"><defs/><g><!--class Customer--><g class="entity" data-entity="Customer" data-source-line="9" data-uid="ent0002" id="entity_Customer"><rect fill="#F5F5F5" height="96.8906" rx="2.5" ry="2.5" style="stroke:#2F4F4F;stroke-width:0.5;" width="157.5986" x="125.89" y="7"/><ellipse cx="166.8076" cy="23" fill="#ADD1B2" rx="11" ry="11" style="stroke:#181818;stroke-width:1;"/><path d="M169.7764,28.6406 Q169.1983,28.9375 168.5576,29.0781 Q167.917,29.2344 167.2139,29.2344 Q164.7139,29.2344 163.3858,27.5938 Q162.0733,25.9375 162.0733,22.8125 Q162.0733,19.6875 163.3858,18.0313 Q164.7139,16.375 167.2139,16.375 Q167.917,16.375 168.5576,16.5313 Q169.2139,16.6875 169.7764,16.9844 L169.7764,19.7031 Q169.1514,19.125 168.5576,18.8594 Q167.9639,18.5781 167.3389,18.5781 Q165.9951,18.5781 165.3076,19.6563 Q164.6201,20.7188 164.6201,22.8125 Q164.6201,24.9063 165.3076,25.9844 Q165.9951,27.0469 167.3389,27.0469 Q167.9639,27.0469 168.5576,26.7813 Q169.1514,26.5 169.7764,25.9219 L169.7764,28.6406 Z " fill="#000000"/><text fill="#000000" font-family="sans-serif" font-size="14" lengthAdjust="spacing" textLength="68.0039" x="186.5671" y="27.8467">Customer</text><line style="stroke:#2F4F4F;stroke-width:0.5;" x1="126.89" x2="282.4886" y1="39" y2="39"/><text fill="#000000" font-family="sans-serif" font-size="14" lengthAdjust="spacing" textLength="11.7305" x="131.89" y="55.9951">+</text><text fill="#000000" font-family="sans-serif" font-size="14" font-weight="bold" lengthAdjust="spacing" textLength="133.8682" x="143.6205" y="55.9951">id : Integer {PK}</text><text fill="#000000" font-family="sans-serif" font-size="14" lengthAdjust="spacing" textLength="123.6826" x="131.89" y="72.292">full_name : String</text><text fill="#000000" font-family="sans-serif" font-size="14" lengthAdjust="spacing" textLength="94.0078" x="131.89" y="88.5889">email : String</text><line style="stroke:#2F4F4F;stroke-width:0.5;" x1="126.89" x2="282.4886" y1="95.8906" y2="95.8906"/></g><!--class Bank--><g class="entity" data-entity="Bank" data-source-line="15" data-uid="ent0003" id="entity_Bank"><rect fill="#F5F5F5" height="96.8906" rx="2.5" ry="2.5" style="stroke:#2F4F4F;stroke-width:0.5;" width="282.9697" x="331.21" y="7"/><ellipse cx="450.8628" cy="23" fill="#ADD1B2" rx="11" ry="11" style="stroke:#181818;stroke-width:1;"/><path d="M453.8316,28.6406 Q453.2535,28.9375 452.6128,29.0781 Q451.9722,29.2344 451.2691,29.2344 Q448.7691,29.2344 447.441,27.5938 Q446.1285,25.9375 446.1285,22.8125 Q446.1285,19.6875 447.441,18.0313 Q448.7691,16.375 451.2691,16.375 Q451.9722,16.375 452.6128,16.5313 Q453.2691,16.6875 453.8316,16.9844 L453.8316,19.7031 Q453.2066,19.125 452.6128,18.8594 Q452.0191,18.5781 451.3941,18.5781 Q450.0503,18.5781 449.3628,19.6563 Q448.6753,20.7188 448.6753,22.8125 Q448.6753,24.9063 449.3628,25.9844 Q450.0503,27.0469 451.3941,27.0469 Q452.0191,27.0469 452.6128,26.7813 Q453.2066,26.5 453.8316,25.9219 L453.8316,28.6406 Z " fill="#000000"/><text fill="#000000" font-family="sans-serif" font-size="14" lengthAdjust="spacing" textLength="35.1641" x="471.3628" y="27.8467">Bank</text><line style="stroke:#2F4F4F;stroke-width:0.5;" x1="332.21" x2="613.1797" y1="39" y2="39"/><text fill="#000000" font-family="sans-serif" font-size="14" lengthAdjust="spacing" textLength="11.7305" x="337.21" y="55.9951">+</text><text fill="#000000" font-family="sans-serif" font-size="14" font-weight="bold" lengthAdjust="spacing" textLength="133.8682" x="348.9405" y="55.9951">id : Integer {PK}</text><text fill="#000000" font-family="sans-serif" font-size="14" lengthAdjust="spacing" textLength="95.1016" x="337.21" y="72.292">name : String</text><text fill="#000000" font-family="sans-serif" font-size="14" lengthAdjust="spacing" textLength="270.9697" x="337.21" y="88.5889">cashier_check_validity_pattern : String</text><line style="stroke:#2F4F4F;stroke-width:0.5;" x1="332.21" x2="613.1797" y1="95.8906" y2="95.8906"/></g><!--class Account--><g class="entity" data-entity="Account" data-source-line="21" data-uid="ent0004" id="entity_Account"><rect fill="#F5F5F5" height="162.0781" rx="2.5" ry="2.5" style="stroke:#2F4F4F;stroke-width:0.5;" width="201.1777" x="278.1" y="163.89"/><ellipse cx="346.0526" cy="179.89" fill="#ADD1B2" rx="11" ry="11" style="stroke:#181818;stroke-width:1;"/><path d="M349.0214,185.5306 Q348.4433,185.8275 347.8026,185.9681 Q347.162,186.1244 346.4589,186.1244 Q343.9589,186.1244 342.6308,184.4838 Q341.3183,182.8275 341.3183,179.7025 Q341.3183,176.5775 342.6308,174.9213 Q343.9589,173.265 346.4589,173.265 Q347.162,173.265 347.8026,173.4213 Q348.4589,173.5775 349.0214,173.8744 L349.0214,176.5931 Q348.3964,176.015 347.8026,175.7494 Q347.2089,175.4681 346.5839,175.4681 Q345.2401,175.4681 344.5526,176.5463 Q343.8651,177.6088 343.8651,179.7025 Q343.8651,181.7963 344.5526,182.8744 Q345.2401,183.9369 346.5839,183.9369 Q347.2089,183.9369 347.8026,183.6713 Q348.3964,183.39 349.0214,182.8119 L349.0214,185.5306 Z " fill="#000000"/><text fill="#000000" font-family="sans-serif" font-size="14" lengthAdjust="spacing" textLength="56.7725" x="366.5526" y="184.7367">Account</text><line style="stroke:#2F4F4F;stroke-width:0.5;" x1="279.1" x2="478.2777" y1="195.89" y2="195.89"/><text fill="#000000" font-family="sans-serif" font-size="14" lengthAdjust="spacing" textLength="11.7305" x="284.1" y="212.8851">+</text><text fill="#000000" font-family="sans-serif" font-size="14" font-weight="bold" lengthAdjust="spacing" textLength="133.8682" x="295.8305" y="212.8851">id : Integer {PK}</text><text fill="#0000FF" font-family="sans-serif" font-size="14" lengthAdjust="spacing" textLength="189.1777" x="284.1" y="229.182">customer_id : Integer {FK}</text><text fill="#0000FF" font-family="sans-serif" font-size="14" lengthAdjust="spacing" textLength="157.6982" x="284.1" y="245.4789">bank_id : Integer {FK}</text><text fill="#000000" font-family="sans-serif" font-size="14" lengthAdjust="spacing" textLength="172.8125" x="284.1" y="261.7757">account_number : String</text><text fill="#000000" font-family="sans-serif" font-size="14" lengthAdjust="spacing" textLength="125.8223" x="284.1" y="278.0726">balance : Decimal</text><text fill="#000000" font-family="sans-serif" font-size="14" lengthAdjust="spacing" textLength="166.8994" x="284.1" y="294.3695">created_at : Timestamp</text><text fill="#000000" font-family="sans-serif" font-size="14" lengthAdjust="spacing" textLength="171.4795" x="284.1" y="310.6664">updated_at : Timestamp</text><line style="stroke:#2F4F4F;stroke-width:0.5;" x1="279.1" x2="478.2777" y1="317.9681" y2="317.9681"/></g><!--class BankingTransaction--><g class="entity" data-entity="BankingTransaction" data-source-line="31" data-uid="ent0005" id="entity_BankingTransaction"><rect fill="#F5F5F5" height="129.4844" rx="2.5" ry="2.5" style="stroke:#2F4F4F;stroke-width:0.5;" width="221.8496" x="267.77" y="410.42"/><ellipse cx="305.6699" cy="426.42" fill="#ADD1B2" rx="11" ry="11" style="stroke:#181818;stroke-width:1;"/><path d="M308.6387,432.0606 Q308.0605,432.3575 307.4199,432.4981 Q306.7793,432.6544 306.0762,432.6544 Q303.5762,432.6544 302.248,431.0138 Q300.9355,429.3575 300.9355,426.2325 Q300.9355,423.1075 302.248,421.4513 Q303.5762,419.795 306.0762,419.795 Q306.7793,419.795 307.4199,419.9513 Q308.0762,420.1075 308.6387,420.4044 L308.6387,423.1231 Q308.0137,422.545 307.4199,422.2794 Q306.8262,421.9981 306.2012,421.9981 Q304.8574,421.9981 304.1699,423.0763 Q303.4824,424.1388 303.4824,426.2325 Q303.4824,428.3263 304.1699,429.4044 Q304.8574,430.4669 306.2012,430.4669 Q306.8262,430.4669 307.4199,430.2013 Q308.0137,429.92 308.6387,429.3419 L308.6387,432.0606 Z " fill="#000000"/><text fill="#000000" font-family="sans-serif" font-size="14" lengthAdjust="spacing" textLength="138.9609" x="324.7588" y="431.2667">BankingTransaction</text><line style="stroke:#2F4F4F;stroke-width:0.5;" x1="268.77" x2="488.6196" y1="442.42" y2="442.42"/><text fill="#000000" font-family="sans-serif" font-size="14" lengthAdjust="spacing" textLength="11.7305" x="273.77" y="459.4151">+</text><text fill="#000000" font-family="sans-serif" font-size="14" font-weight="bold" lengthAdjust="spacing" textLength="133.8682" x="285.5005" y="459.4151">id : Integer {PK}</text><text fill="#0000FF" font-family="sans-serif" font-size="14" lengthAdjust="spacing" textLength="179.0264" x="273.77" y="475.712">account_id : Integer {FK}</text><text fill="#000000" font-family="sans-serif" font-size="14" lengthAdjust="spacing" textLength="172.7578" x="273.77" y="492.0089">transaction_type : String</text><text fill="#000000" font-family="sans-serif" font-size="14" lengthAdjust="spacing" textLength="124.7217" x="273.77" y="508.3057">amount : Decimal</text><text fill="#000000" font-family="sans-serif" font-size="14" lengthAdjust="spacing" textLength="209.8496" x="273.77" y="524.6026">transaction_date : Timestamp</text><line style="stroke:#2F4F4F;stroke-width:0.5;" x1="268.77" x2="488.6196" y1="531.9044" y2="531.9044"/></g><!--class LoanApplication--><g class="entity" data-entity="LoanApplication" data-source-line="39" data-uid="ent0006" id="entity_LoanApplication"><rect fill="#F5F5F5" height="178.375" rx="2.5" ry="2.5" style="stroke:#2F4F4F;stroke-width:0.5;" width="201.1777" x="31.1" y="385.97"/><ellipse cx="71.8115" cy="401.97" fill="#ADD1B2" rx="11" ry="11" style="stroke:#181818;stroke-width:1;"/><path d="M74.7803,407.6106 Q74.2021,407.9075 73.5615,408.0481 Q72.9209,408.2044 72.2178,408.2044 Q69.7178,408.2044 68.3896,406.5638 Q67.0771,404.9075 67.0771,401.7825 Q67.0771,398.6575 68.3896,397.0013 Q69.7178,395.345 72.2178,395.345 Q72.9209,395.345 73.5615,395.5013 Q74.2178,395.6575 74.7803,395.9544 L74.7803,398.6731 Q74.1553,398.095 73.5615,397.8294 Q72.9678,397.5481 72.3428,397.5481 Q70.999,397.5481 70.3115,398.6263 Q69.624,399.6888 69.624,401.7825 Q69.624,403.8763 70.3115,404.9544 Q70.999,406.0169 72.3428,406.0169 Q72.9678,406.0169 73.5615,405.7513 Q74.1553,405.47 74.7803,404.8919 L74.7803,407.6106 Z " fill="#000000"/><text fill="#000000" font-family="sans-serif" font-size="14" lengthAdjust="spacing" textLength="112.041" x="91.5252" y="406.8167">LoanApplication</text><line style="stroke:#2F4F4F;stroke-width:0.5;" x1="32.1" x2="231.2777" y1="417.97" y2="417.97"/><text fill="#000000" font-family="sans-serif" font-size="14" lengthAdjust="spacing" textLength="11.7305" x="37.1" y="434.9651">+</text><text fill="#000000" font-family="sans-serif" font-size="14" font-weight="bold" lengthAdjust="spacing" textLength="133.8682" x="48.8305" y="434.9651">id : Integer {PK}</text><text fill="#0000FF" font-family="sans-serif" font-size="14" lengthAdjust="spacing" textLength="189.1777" x="37.1" y="451.262">customer_id : Integer {FK}</text><text fill="#0000FF" font-family="sans-serif" font-size="14" lengthAdjust="spacing" textLength="179.0264" x="37.1" y="467.5589">account_id : Integer {FK}</text><text fill="#000000" font-family="sans-serif" font-size="14" lengthAdjust="spacing" textLength="123.5801" x="37.1" y="483.8557">loan_type : String</text><text fill="#000000" font-family="sans-serif" font-size="14" lengthAdjust="spacing" textLength="161.6289" x="37.1" y="500.1526">loan_amount : Decimal</text><text fill="#000000" font-family="sans-serif" font-size="14" lengthAdjust="spacing" textLength="159.3047" x="37.1" y="516.4495">loan_description : Text</text><text fill="#000000" font-family="sans-serif" font-size="14" lengthAdjust="spacing" textLength="98.417" x="37.1" y="532.7464">status : String</text><text fill="#000000" font-family="sans-serif" font-size="14" lengthAdjust="spacing" textLength="166.8994" x="37.1" y="549.0432">created_at : Timestamp</text><line style="stroke:#2F4F4F;stroke-width:0.5;" x1="32.1" x2="231.2777" y1="556.345" y2="556.345"/></g><!--class CashierCheck--><g class="entity" data-entity="CashierCheck" data-source-line="50" data-uid="ent0007" id="entity_CashierCheck"><rect fill="#F5F5F5" height="178.375" rx="2.5" ry="2.5" style="stroke:#2F4F4F;stroke-width:0.5;" width="191.0264" x="524.18" y="385.97"/><ellipse cx="567.6109" cy="401.97" fill="#ADD1B2" rx="11" ry="11" style="stroke:#181818;stroke-width:1;"/><path d="M570.5796,407.6106 Q570.0015,407.9075 569.3609,408.0481 Q568.7202,408.2044 568.0171,408.2044 Q565.5171,408.2044 564.189,406.5638 Q562.8765,404.9075 562.8765,401.7825 Q562.8765,398.6575 564.189,397.0013 Q565.5171,395.345 568.0171,395.345 Q568.7202,395.345 569.3609,395.5013 Q570.0171,395.6575 570.5796,395.9544 L570.5796,398.6731 Q569.9546,398.095 569.3609,397.8294 Q568.7671,397.5481 568.1421,397.5481 Q566.7984,397.5481 566.1109,398.6263 Q565.4234,399.6888 565.4234,401.7825 Q565.4234,403.8763 566.1109,404.9544 Q566.7984,406.0169 568.1421,406.0169 Q568.7671,406.0169 569.3609,405.7513 Q569.9546,405.47 570.5796,404.8919 L570.5796,407.6106 Z " fill="#000000"/><text fill="#000000" font-family="sans-serif" font-size="14" lengthAdjust="spacing" textLength="95.8467" x="587.9288" y="406.8167">CashierCheck</text><line style="stroke:#2F4F4F;stroke-width:0.5;" x1="525.18" x2="714.2064" y1="417.97" y2="417.97"/><text fill="#000000" font-family="sans-serif" font-size="14" lengthAdjust="spacing" textLength="11.7305" x="530.18" y="434.9651">+</text><text fill="#000000" font-family="sans-serif" font-size="14" font-weight="bold" lengthAdjust="spacing" textLength="133.8682" x="541.9105" y="434.9651">id : Integer {PK}</text><text fill="#0000FF" font-family="sans-serif" font-size="14" lengthAdjust="spacing" textLength="179.0264" x="530.18" y="451.262">account_id : Integer {FK}</text><text fill="#0000FF" font-family="sans-serif" font-size="14" lengthAdjust="spacing" textLength="157.6982" x="530.18" y="467.5589">bank_id : Integer {FK}</text><text fill="#000000" font-family="sans-serif" font-size="14" lengthAdjust="spacing" textLength="158.0264" x="530.18" y="483.8557">check_number : String</text><text fill="#000000" font-family="sans-serif" font-size="14" lengthAdjust="spacing" textLength="166.7285" x="530.18" y="500.1526">issue_date : Timestamp</text><text fill="#000000" font-family="sans-serif" font-size="14" lengthAdjust="spacing" textLength="124.7217" x="530.18" y="516.4495">amount : Decimal</text><text fill="#000000" font-family="sans-serif" font-size="14" lengthAdjust="spacing" textLength="122.0215" x="530.18" y="532.7464">is_valid : Boolean</text><text fill="#000000" font-family="sans-serif" font-size="14" lengthAdjust="spacing" textLength="166.8994" x="530.18" y="549.0432">created_at : Timestamp</text><line style="stroke:#2F4F4F;stroke-width:0.5;" x1="525.18" x2="714.2064" y1="556.345" y2="556.345"/></g><!--class LoanMonitoring--><g class="entity" data-entity="LoanMonitoring" data-source-line="61" data-uid="ent0008" id="entity_LoanMonitoring"><rect fill="#F5F5F5" height="178.375" rx="2.5" ry="2.5" style="stroke:#2F4F4F;stroke-width:0.5;" width="249.3848" x="7" y="624.34"/><ellipse cx="73.1001" cy="640.34" fill="#ADD1B2" rx="11" ry="11" style="stroke:#181818;stroke-width:1;"/><path d="M76.0688,645.9806 Q75.4907,646.2775 74.8501,646.4181 Q74.2095,646.5744 73.5063,646.5744 Q71.0063,646.5744 69.6782,644.9338 Q68.3657,643.2775 68.3657,640.1525 Q68.3657,637.0275 69.6782,635.3713 Q71.0063,633.715 73.5063,633.715 Q74.2095,633.715 74.8501,633.8713 Q75.5063,634.0275 76.0688,634.3244 L76.0688,637.0431 Q75.4438,636.465 74.8501,636.1994 Q74.2563,635.9181 73.6313,635.9181 Q72.2876,635.9181 71.6001,636.9963 Q70.9126,638.0588 70.9126,640.1525 Q70.9126,642.2463 71.6001,643.3244 Q72.2876,644.3869 73.6313,644.3869 Q74.2563,644.3869 74.8501,644.1213 Q75.4438,643.84 76.0688,643.2619 L76.0688,645.9806 Z " fill="#000000"/><text fill="#000000" font-family="sans-serif" font-size="14" lengthAdjust="spacing" textLength="108.6846" x="93.6001" y="645.1867">LoanMonitoring</text><line style="stroke:#2F4F4F;stroke-width:0.5;" x1="8" x2="255.3848" y1="656.34" y2="656.34"/><text fill="#000000" font-family="sans-serif" font-size="14" lengthAdjust="spacing" textLength="11.7305" x="13" y="673.3351">+</text><text fill="#000000" font-family="sans-serif" font-size="14" font-weight="bold" lengthAdjust="spacing" textLength="133.8682" x="24.7305" y="673.3351">id : Integer {PK}</text><text fill="#0000FF" font-family="sans-serif" font-size="14" lengthAdjust="spacing" textLength="237.3848" x="13" y="689.632">loan_application_id : Integer {FK}</text><text fill="#000000" font-family="sans-serif" font-size="14" lengthAdjust="spacing" textLength="207.1904" x="13" y="705.9289">monitoring_date : Timestamp</text><text fill="#000000" font-family="sans-serif" font-size="14" lengthAdjust="spacing" textLength="130.4639" x="13" y="722.2257">risk_status : String</text><text fill="#000000" font-family="sans-serif" font-size="14" lengthAdjust="spacing" textLength="222.332" x="13" y="738.5226">check_validation_status : String</text><text fill="#000000" font-family="sans-serif" font-size="14" lengthAdjust="spacing" textLength="200.9629" x="13" y="754.8195">loan_provider_status : String</text><text fill="#000000" font-family="sans-serif" font-size="14" lengthAdjust="spacing" textLength="184.1465" x="13" y="771.1164">notification_status : String</text><text fill="#000000" font-family="sans-serif" font-size="14" lengthAdjust="spacing" textLength="171.3428" x="13" y="787.4132">customer_status : String</text><line style="stroke:#2F4F4F;stroke-width:0.5;" x1="8" x2="255.3848" y1="794.715" y2="794.715"/></g><!--link Customer to Account--><g class="link" data-entity-1="Customer" data-entity-2="Account" data-source-line="73" data-uid="lnk9" id="link_Customer_Account"><path codeLine="73" d="M249.05,104.24 C265.76,122.25 285.27,143.27 304,163.45" fill="none" id="Customer-Account" style="stroke:#2F4F4F;stroke-width:1;"/><text fill="#000000" font-family="sans-serif" font-size="13" lengthAdjust="spacing" textLength="8.271" x="246.4917" y="123.8804">1</text><text fill="#000000" font-family="sans-serif" font-size="13" lengthAdjust="spacing" textLength="24.7749" x="272.5835" y="152.876">0..n</text></g><!--link Bank to Account--><g class="link" data-entity-1="Bank" data-entity-2="Account" data-source-line="74" data-uid="lnk10" id="link_Bank_Account"><path codeLine="74" d="M448.73,104.24 C439.7,122.25 429.16,143.27 419.05,163.45" fill="none" id="Bank-Account" style="stroke:#2F4F4F;stroke-width:1;"/><text fill="#000000" font-family="sans-serif" font-size="13" lengthAdjust="spacing" textLength="8.271" x="436.9904" y="123.8804">1</text><text fill="#000000" font-family="sans-serif" font-size="13" lengthAdjust="spacing" textLength="24.7749" x="397.5206" y="152.876">0..n</text></g><!--link Account to BankingTransaction--><g class="link" data-entity-1="Account" data-entity-2="BankingTransaction" data-source-line="75" data-uid="lnk11" id="link_Account_BankingTransaction"><path codeLine="75" d="M378.69,326.4 C378.69,353.86 378.69,384.18 378.69,410.17" fill="none" id="Account-BankingTransaction" style="stroke:#2F4F4F;stroke-width:1;"/><text fill="#000000" font-family="sans-serif" font-size="13" lengthAdjust="spacing" textLength="8.271" x="370.358" y="346.1185">1</text><text fill="#000000" font-family="sans-serif" font-size="13" lengthAdjust="spacing" textLength="24.7749" x="353.4194" y="399.3153">0..n</text></g><!--link Account to CashierCheck--><g class="link" data-entity-1="Account" data-entity-2="CashierCheck" data-source-line="76" data-uid="lnk12" id="link_Account_CashierCheck"><path codeLine="76" d="M463.66,326.4 C483.85,345.52 505.51,366.02 526.06,385.49" fill="none" id="Account-CashierCheck" style="stroke:#2F4F4F;stroke-width:1;"/><text fill="#000000" font-family="sans-serif" font-size="13" lengthAdjust="spacing" textLength="8.271" x="462.6301" y="346.1185">1</text><text fill="#000000" font-family="sans-serif" font-size="13" lengthAdjust="spacing" textLength="24.7749" x="493.6732" y="374.8192">0..n</text></g><!--link Bank to CashierCheck--><g class="link" data-entity-1="Bank" data-entity-2="CashierCheck" data-source-line="77" data-uid="lnk13" id="link_Bank_CashierCheck"><path codeLine="77" d="M489.56,104.36 C513.65,172.83 558.35,299.85 588.56,385.68" fill="none" id="Bank-CashierCheck" style="stroke:#2F4F4F;stroke-width:1;"/><text fill="#000000" font-family="sans-serif" font-size="13" lengthAdjust="spacing" textLength="8.271" x="483.307" y="124.0165">1</text><text fill="#000000" font-family="sans-serif" font-size="13" lengthAdjust="spacing" textLength="24.7749" x="561.1537" y="375.0243">0..n</text></g><!--link Account to LoanApplication--><g class="link" data-entity-1="Account" data-entity-2="LoanApplication" data-source-line="78" data-uid="lnk14" id="link_Account_LoanApplication"><path codeLine="78" d="M291.61,326.4 C270.91,345.52 248.72,366.02 227.65,385.49" fill="none" id="Account-LoanApplication" style="stroke:#2F4F4F;stroke-width:1;"/><text fill="#000000" font-family="sans-serif" font-size="13" lengthAdjust="spacing" textLength="8.271" x="275.7946" y="346.1185">1</text><text fill="#000000" font-family="sans-serif" font-size="13" lengthAdjust="spacing" textLength="24.7749" x="210.3715" y="374.8192">0..n</text></g><!--link Customer to LoanApplication--><g class="link" data-entity-1="Customer" data-entity-2="LoanApplication" data-source-line="79" data-uid="lnk15" id="link_Customer_LoanApplication"><path codeLine="79" d="M196.32,104.36 C184.35,172.83 162.16,299.85 147.15,385.68" fill="none" id="Customer-LoanApplication" style="stroke:#2F4F4F;stroke-width:1;"/><text fill="#000000" font-family="sans-serif" font-size="13" lengthAdjust="spacing" textLength="8.271" x="186.6761" y="124.0165">1</text><text fill="#000000" font-family="sans-serif" font-size="13" lengthAdjust="spacing" textLength="24.7749" x="123.4567" y="375.0243">0..n</text></g><!--link LoanApplication to LoanMonitoring--><g class="link" data-entity-1="LoanApplication" data-entity-2="LoanMonitoring" data-source-line="80" data-uid="lnk16" id="link_LoanApplication_LoanMonitoring"><path codeLine="80" d="M131.69,564.51 C131.69,583.92 131.69,604.47 131.69,623.89" fill="none" id="LoanApplication-LoanMonitoring" style="stroke:#2F4F4F;stroke-width:1;"/><text fill="#000000" font-family="sans-serif" font-size="13" lengthAdjust="spacing" textLength="8.271" x="123.3821" y="584.3001">1</text><text fill="#000000" font-family="sans-serif" font-size="13" lengthAdjust="spacing" textLength="8.271" x="123.3819" y="613.2215">1</text></g><!--SRC=[hLNRQjj047tNLon-ARWaJLv32DWEAS4jX3hGHp5UZUD1grrrBsxSuW_oT-J7EfBYY-HDOaDVvypEd3CpEd8vwH8i548gS6xWlQLfy7WlZPxG7nGNYMkdYB-944EG-PCrGMSZeumLF-VaSLAO72lGs0nj0zo2pISAF7wri6HiOAtv7ODMIV99tBwiPwJ9az4YGoTGU_8lQoTWWL984nG6wuGhNzQIPlGhS4vfWXKFOu5Ut8sJXk8eE6yAj3NNpwBVfqnSYNljyQaAFenN_JuZiw1Kgg501YSiN3zn40iWjGimhwRc47J-GRrkAGbkJcXJEKUPfmjGb95VfYLuZrP7UWmaQzJ-WpRNifhVrL05l96lIjDswjruTVsbJhlfF9YoZ7UJeU6Gwb1C6TsJCmK5MbOARr5I0QgIQ94tcANWEVn81JeFHSb0ABCOq1edbtsqe1t8UkF7gzvmV4-7trLE_R9iBGQAUipxGlRJA-PnrjyCw45PAf9m8kMJ5tMCHiLq3iJLmOZ2EivVbRHKrkHP8JvxHbYa3wvrkV6rRkSmQYvxL1tsVzxRISVQV5c7fqhE1JpSOtJpv9fFauD3OnI2Fc80rI5yDsnLfkfumWYQxUnEw5rvnRP3J8ibbwUHtUtSfkbmc5AJAArP41jr1DV6ixtAjvvlRxaBrIR-0rNzaEtxkPB9VuQDWOFDI3EnojEJhKdtBdlYx4pqBixFTM_ZWKdjjt5eOvDjzD1HtaZSFzvOcnOUBz7nWRUqTDEwzh79lknr3keV]--></g></svg>