<svg xmlns="http://www.w3.org/2000/svg" xmlns:xlink="http://www.w3.org/1999/xlink" contentStyleType="text/css" data-diagram-type="ACTIVITY" height="708px" preserveAspectRatio="none" style="width:1601px;height:708px;background:#FFFFFF;" version="1.1" viewBox="0 0 1601 708" width="1601px" zoomAndPan="magnify"><title>Workflow: Loan Application Process</title><defs/><g><text fill="#000000" font-family="sans-serif" font-size="14" font-weight="bold" lengthAdjust="spacing" textLength="283.4316" x="657.7441" y="32.9951">Workflow: Loan Application Process</text><ellipse cx="549.0074" cy="57.2969" fill="#222222" rx="10" ry="10" style="stroke:#222222;stroke-width:1;"/><rect fill="#F1F1F1" height="33.9688" rx="12.5" ry="12.5" style="stroke:#181818;stroke-width:0.5;" width="345.9629" x="376.026" y="87.2969"/><text fill="#000000" font-family="sans-serif" font-size="12" lengthAdjust="spacing" textLength="325.9629" x="386.026" y="108.4355">Client submits loan request to REST Customer Service</text><rect fill="#F1F1F1" height="33.9688" rx="12.5" ry="12.5" style="stroke:#181818;stroke-width:0.5;" width="166.6895" x="465.6627" y="141.2656"/><text fill="#000000" font-family="sans-serif" font-size="12" lengthAdjust="spacing" textLength="146.6895" x="475.6627" y="162.4043">Check loan amount limit</text><polygon fill="#F1F1F1" points="486.0931,195.2344,611.9218,195.2344,623.9218,207.2344,611.9218,219.2344,486.0931,219.2344,474.0931,207.2344,486.0931,195.2344" style="stroke:#181818;stroke-width:0.5;"/><text fill="#000000" font-family="sans-serif" font-size="11" lengthAdjust="spacing" textLength="125.8286" x="486.0931" y="211.0425">Amount exceeds limit?</text><text fill="#000000" font-family="sans-serif" font-size="11" lengthAdjust="spacing" textLength="19.0083" x="455.0848" y="204.6401">yes</text><text fill="#000000" font-family="sans-serif" font-size="11" lengthAdjust="spacing" textLength="13.7017" x="623.9218" y="204.6401">no</text><rect fill="#F1F1F1" height="33.9688" rx="12.5" ry="12.5" style="stroke:#181818;stroke-width:0.5;" width="370.8359" x="11" y="229.2344"/><text fill="#000000" font-family="sans-serif" font-size="12" lengthAdjust="spacing" textLength="350.8359" x="21" y="250.373">Notify client of loan rejection via REST Notification Service</text><ellipse cx="196.418" cy="294.2031" fill="none" rx="11" ry="11" style="stroke:#222222;stroke-width:1;"/><ellipse cx="196.418" cy="294.2031" fill="#222222" rx="6" ry="6" style="stroke:#222222;stroke-width:1;"/><rect fill="#F1F1F1" height="33.9688" rx="12.5" ry="12.5" style="stroke:#181818;stroke-width:0.5;" width="239.2871" x="781.9534" y="229.2344"/><text fill="#000000" font-family="sans-serif" font-size="12" lengthAdjust="spacing" textLength="219.2871" x="791.9534" y="250.373">Invoke gRPC Risk Evaluation Service</text><rect fill="#F1F1F1" height="33.9688" rx="12.5" ry="12.5" style="stroke:#181818;stroke-width:0.5;" width="290.9492" x="756.1223" y="283.2031"/><text fill="#000000" font-family="sans-serif" font-size="12" lengthAdjust="spacing" textLength="270.9492" x="766.1223" y="304.3418">Assess risk based on client's banking activity</text><polygon fill="#F1F1F1" points="807.4094,337.1719,995.7844,337.1719,1007.7844,349.1719,995.7844,361.1719,807.4094,361.1719,795.4094,349.1719,807.4094,337.1719" style="stroke:#181818;stroke-width:0.5;"/><text fill="#000000" font-family="sans-serif" font-size="11" lengthAdjust="spacing" textLength="188.375" x="807.4094" y="352.98">High risk AND amount &gt;= 20000?</text><text fill="#000000" font-family="sans-serif" font-size="11" lengthAdjust="spacing" textLength="19.0083" x="776.4011" y="346.5776">yes</text><text fill="#000000" font-family="sans-serif" font-size="11" lengthAdjust="spacing" textLength="13.7017" x="1007.7844" y="346.5776">no</text><rect fill="#F1F1F1" height="33.9688" rx="12.5" ry="12.5" style="stroke:#181818;stroke-width:0.5;" width="370.8359" x="411.8359" y="371.1719"/><text fill="#000000" font-family="sans-serif" font-size="12" lengthAdjust="spacing" textLength="350.8359" x="421.8359" y="392.3105">Notify client of loan rejection via REST Notification Service</text><ellipse cx="597.2539" cy="436.1406" fill="none" rx="11" ry="11" style="stroke:#222222;stroke-width:1;"/><ellipse cx="597.2539" cy="436.1406" fill="#222222" rx="6" ry="6" style="stroke:#222222;stroke-width:1;"/><rect fill="#F1F1F1" height="33.9688" rx="12.5" ry="12.5" style="stroke:#181818;stroke-width:0.5;" width="417.3184" x="997.2808" y="371.1719"/><text fill="#000000" font-family="sans-serif" font-size="12" lengthAdjust="spacing" textLength="397.3184" x="1007.2808" y="392.3105">Notify client to provide check details via REST Notification Service</text><rect fill="#F1F1F1" height="33.9688" rx="12.5" ry="12.5" style="stroke:#181818;stroke-width:0.5;" width="355.3027" x="1028.2886" y="425.1406"/><text fill="#000000" font-family="sans-serif" font-size="12" lengthAdjust="spacing" textLength="335.3027" x="1038.2886" y="446.2793">Client submits check details via REST Customer Service</text><rect fill="#F1F1F1" height="33.9688" rx="12.5" ry="12.5" style="stroke:#181818;stroke-width:0.5;" width="358.4727" x="1026.7036" y="479.1094"/><text fill="#000000" font-family="sans-serif" font-size="12" lengthAdjust="spacing" textLength="338.4727" x="1036.7036" y="500.248">Send check details to GraphQL Check Validation Service</text><polygon fill="#F1F1F1" points="1124.2375,533.0781,1287.6423,533.0781,1299.6423,545.0781,1287.6423,557.0781,1124.2375,557.0781,1112.2375,545.0781,1124.2375,533.0781" style="stroke:#181818;stroke-width:0.5;"/><text fill="#000000" font-family="sans-serif" font-size="11" lengthAdjust="spacing" textLength="163.4048" x="1124.2375" y="548.8862">Check valid AND bank exists?</text><text fill="#000000" font-family="sans-serif" font-size="11" lengthAdjust="spacing" textLength="19.0083" x="1093.2292" y="542.4839">yes</text><text fill="#000000" font-family="sans-serif" font-size="11" lengthAdjust="spacing" textLength="13.7017" x="1299.6423" y="542.4839">no</text><rect fill="#F1F1F1" height="33.9688" rx="12.5" ry="12.5" style="stroke:#181818;stroke-width:0.5;" width="335.0879" x="838.834" y="567.0781"/><text fill="#000000" font-family="sans-serif" font-size="12" lengthAdjust="spacing" textLength="315.0879" x="848.834" y="588.2168">Invoke SOAP Loan Provider Service to transfer funds</text><rect fill="#F1F1F1" height="33.9688" rx="12.5" ry="12.5" style="stroke:#181818;stroke-width:0.5;" width="387.4121" x="812.6719" y="621.0469"/><text fill="#000000" font-family="sans-serif" font-size="12" lengthAdjust="spacing" textLength="367.4121" x="822.6719" y="642.1855">Notify client of loan acceptance via REST Notification Service</text><ellipse cx="1006.3779" cy="686.0156" fill="none" rx="11" ry="11" style="stroke:#222222;stroke-width:1;"/><ellipse cx="1006.3779" cy="686.0156" fill="#222222" rx="6" ry="6" style="stroke:#222222;stroke-width:1;"/><rect fill="#F1F1F1" height="33.9688" rx="12.5" ry="12.5" style="stroke:#181818;stroke-width:0.5;" width="370.8359" x="1220.084" y="567.0781"/><text fill="#000000" font-family="sans-serif" font-size="12" lengthAdjust="spacing" textLength="350.8359" x="1230.084" y="588.2168">Notify client of loan rejection via REST Notification Service</text><ellipse cx="1405.502" cy="632.0469" fill="none" rx="11" ry="11" style="stroke:#222222;stroke-width:1;"/><ellipse cx="1405.502" cy="632.0469" fill="#222222" rx="6" ry="6" style="stroke:#222222;stroke-width:1;"/><line style="stroke:#181818;stroke-width:1;" x1="549.0074" x2="549.0074" y1="67.2969" y2="87.2969"/><polygon fill="#181818" points="545.0074,77.2969,549.0074,87.2969,553.0074,77.2969,549.0074,81.2969" style="stroke:#181818;stroke-width:1;"/><line style="stroke:#181818;stroke-width:1;" x1="549.0074" x2="549.0074" y1="121.2656" y2="141.2656"/><polygon fill="#181818" points="545.0074,131.2656,549.0074,141.2656,553.0074,131.2656,549.0074,135.2656" style="stroke:#181818;stroke-width:1;"/><line style="stroke:#181818;stroke-width:1;" x1="196.418" x2="196.418" y1="263.2031" y2="283.2031"/><polygon fill="#181818" points="192.418,273.2031,196.418,283.2031,200.418,273.2031,196.418,277.2031" style="stroke:#181818;stroke-width:1;"/><line style="stroke:#181818;stroke-width:1;" x1="901.5969" x2="901.5969" y1="263.2031" y2="283.2031"/><polygon fill="#181818" points="897.5969,273.2031,901.5969,283.2031,905.5969,273.2031,901.5969,277.2031" style="stroke:#181818;stroke-width:1;"/><line style="stroke:#181818;stroke-width:1;" x1="597.2539" x2="597.2539" y1="405.1406" y2="425.1406"/><polygon fill="#181818" points="593.2539,415.1406,597.2539,425.1406,601.2539,415.1406,597.2539,419.1406" style="stroke:#181818;stroke-width:1;"/><line style="stroke:#181818;stroke-width:1;" x1="1205.9399" x2="1205.9399" y1="405.1406" y2="425.1406"/><polygon fill="#181818" points="1201.9399,415.1406,1205.9399,425.1406,1209.9399,415.1406,1205.9399,419.1406" style="stroke:#181818;stroke-width:1;"/><line style="stroke:#181818;stroke-width:1;" x1="1205.9399" x2="1205.9399" y1="459.1094" y2="479.1094"/><polygon fill="#181818" points="1201.9399,469.1094,1205.9399,479.1094,1209.9399,469.1094,1205.9399,473.1094" style="stroke:#181818;stroke-width:1;"/><line style="stroke:#181818;stroke-width:1;" x1="1006.3779" x2="1006.3779" y1="601.0469" y2="621.0469"/><polygon fill="#181818" points="1002.3779,611.0469,1006.3779,621.0469,1010.3779,611.0469,1006.3779,615.0469" style="stroke:#181818;stroke-width:1;"/><line style="stroke:#181818;stroke-width:1;" x1="1006.3779" x2="1006.3779" y1="655.0156" y2="675.0156"/><polygon fill="#181818" points="1002.3779,665.0156,1006.3779,675.0156,1010.3779,665.0156,1006.3779,669.0156" style="stroke:#181818;stroke-width:1;"/><line style="stroke:#181818;stroke-width:1;" x1="1405.502" x2="1405.502" y1="601.0469" y2="621.0469"/><polygon fill="#181818" points="1401.502,611.0469,1405.502,621.0469,1409.502,611.0469,1405.502,615.0469" style="stroke:#181818;stroke-width:1;"/><line style="stroke:#181818;stroke-width:1;" x1="1112.2375" x2="1006.3779" y1="545.0781" y2="545.0781"/><line style="stroke:#181818;stroke-width:1;" x1="1006.3779" x2="1006.3779" y1="545.0781" y2="567.0781"/><polygon fill="#181818" points="1002.3779,557.0781,1006.3779,567.0781,1010.3779,557.0781,1006.3779,561.0781" style="stroke:#181818;stroke-width:1;"/><line style="stroke:#181818;stroke-width:1;" x1="1299.6423" x2="1405.502" y1="545.0781" y2="545.0781"/><line style="stroke:#181818;stroke-width:1;" x1="1405.502" x2="1405.502" y1="545.0781" y2="567.0781"/><polygon fill="#181818" points="1401.502,557.0781,1405.502,567.0781,1409.502,557.0781,1405.502,561.0781" style="stroke:#181818;stroke-width:1;"/><line style="stroke:#181818;stroke-width:1;" x1="1205.9399" x2="1205.9399" y1="513.0781" y2="533.0781"/><polygon fill="#181818" points="1201.9399,523.0781,1205.9399,533.0781,1209.9399,523.0781,1205.9399,527.0781" style="stroke:#181818;stroke-width:1;"/><line style="stroke:#181818;stroke-width:1;" x1="795.4094" x2="597.2539" y1="349.1719" y2="349.1719"/><line style="stroke:#181818;stroke-width:1;" x1="597.2539" x2="597.2539" y1="349.1719" y2="371.1719"/><polygon fill="#181818" points="593.2539,361.1719,597.2539,371.1719,601.2539,361.1719,597.2539,365.1719" style="stroke:#181818;stroke-width:1;"/><line style="stroke:#181818;stroke-width:1;" x1="1007.7844" x2="1205.9399" y1="349.1719" y2="349.1719"/><line style="stroke:#181818;stroke-width:1;" x1="1205.9399" x2="1205.9399" y1="349.1719" y2="371.1719"/><polygon fill="#181818" points="1201.9399,361.1719,1205.9399,371.1719,1209.9399,361.1719,1205.9399,365.1719" style="stroke:#181818;stroke-width:1;"/><line style="stroke:#181818;stroke-width:1;" x1="901.5969" x2="901.5969" y1="317.1719" y2="337.1719"/><polygon fill="#181818" points="897.5969,327.1719,901.5969,337.1719,905.5969,327.1719,901.5969,331.1719" style="stroke:#181818;stroke-width:1;"/><line style="stroke:#181818;stroke-width:1;" x1="474.0931" x2="196.418" y1="207.2344" y2="207.2344"/><line style="stroke:#181818;stroke-width:1;" x1="196.418" x2="196.418" y1="207.2344" y2="229.2344"/><polygon fill="#181818" points="192.418,219.2344,196.418,229.2344,200.418,219.2344,196.418,223.2344" style="stroke:#181818;stroke-width:1;"/><line style="stroke:#181818;stroke-width:1;" x1="623.9218" x2="901.5969" y1="207.2344" y2="207.2344"/><line style="stroke:#181818;stroke-width:1;" x1="901.5969" x2="901.5969" y1="207.2344" y2="229.2344"/><polygon fill="#181818" points="897.5969,219.2344,901.5969,229.2344,905.5969,219.2344,901.5969,223.2344" style="stroke:#181818;stroke-width:1;"/><line style="stroke:#181818;stroke-width:1;" x1="549.0074" x2="549.0074" y1="175.2344" y2="195.2344"/><polygon fill="#181818" points="545.0074,185.2344,549.0074,195.2344,553.0074,185.2344,549.0074,189.2344" style="stroke:#181818;stroke-width:1;"/><!--SRC=[hL8zJyCm4DtpAswZR8Yn5Q2eL824eBG8PkDScYEE7NoNGFyzJanArHQf0naIoRdtxdsOIxArygg2obcd2-yg1F4D9a9Y45wTBtFZFiTmxvI5jAuDQINaBCozqyYS92pAIpAU6a8hmCrRHS9WkdcF7msoW3XOp9RFC6rOmWOFI_GjQPm4M86wZDEgSarWC1G89WdbC4hZ2Nvfn8pZdwjJa08jZDR8fmd0-C49vMlGSR_BXzNlg7kXBQculHySv6yK00HDTOA64KRMzPHtjdKbmcendyA2k8HPgqop1nodp242yDt8csBC80n48ISSJco8TmKgw6X9rXsaStLBgo9YqeVhmVNb1PoVXMVNtdyO_B48i6roZpYKL7lNKeQW-r8o54M6Z-7VRVyFWlt-U_0IRRO32M9klAgBftk8D-H56SeEREu2ZHDjDz57sWKVBWsny7wSl_Kk7zDvlDVpw7kZgrilNbdEmrdUs8md0_Pm6Kfhh4NP03qYhKqVkutyJzdRz3QZF1c-_ViR]--></g></svg>